<?xml version="1.0" encoding="UTF-8"?>
<svg version="1.1" xmlns="http://www.w3.org/2000/svg" width="500" height="454">
<path d="M0 0 C8.84831935 3.95549299 8.84831935 3.95549299 18.19604492 2.58789062 C20.68821306 1.45916401 23.12230041 0.22788683 25.5625 -1.00830078 C28.93422632 -2.5295022 32.46358628 -3.35009806 36.0546875 -4.19140625 C37.33472656 -4.49691406 38.61476563 -4.80242188 39.93359375 -5.1171875 C45.84902807 -6.38338914 51.48918901 -7.05528099 57.5390625 -7.1171875 C58.69417328 -7.12929512 58.69417328 -7.12929512 59.87261963 -7.14164734 C61.50311069 -7.15543178 63.13362993 -7.16617897 64.76416016 -7.17407227 C66.39478308 -7.18547859 68.02537214 -7.20574536 69.65576172 -7.2355957 C104.3351487 -7.86837962 136.46893828 6.4107928 161.4921875 30.12109375 C162.389375 30.95382813 163.2865625 31.7865625 164.2109375 32.64453125 C188.12117348 55.54731347 202.50397193 89.08136549 203.73046875 122.125 C204.10783732 140.89527873 202.01224362 158.6880917 194.69116211 176.09667969 C192.98417178 180.2199514 191.9542211 182.73959837 193.4921875 187.12109375 C193.69320068 187.72888672 193.89421387 188.33667969 194.10131836 188.96289062 C194.83500513 191.16935896 195.60109299 193.36318377 196.3671875 195.55859375 C208.54611829 231.27135713 205.07002823 267.89487799 188.5546875 301.55859375 C172.19771284 333.54008276 143.95583566 357.71487455 109.78515625 368.83984375 C79.82705303 378.05984511 49.344254 377.85100897 20.11108398 366.32006836 C12.55702992 363.42139246 7.80635346 364.90914049 0.36499023 367.54663086 C-25.27277064 376.61156877 -52.08799483 378.42870289 -78.5078125 371.12109375 C-79.25111816 370.92273926 -79.99442383 370.72438477 -80.76025391 370.52001953 C-103.37171763 364.31285423 -122.55975688 352.08966455 -139.5078125 336.12109375 C-140.41080078 335.29738281 -140.41080078 335.29738281 -141.33203125 334.45703125 C-163.05015974 313.90327795 -178.05719125 280.60243479 -179.68481445 250.88989258 C-180.01613527 232.98404865 -180.11063938 215.70770926 -173.47265625 198.796875 C-168.5816182 186.97599813 -168.5816182 186.97599813 -170.8203125 174.87109375 C-171.73058553 172.94416491 -172.67017785 171.03460997 -173.62109375 169.12744141 C-175.19264606 165.5715447 -175.98845487 161.8437312 -176.8203125 158.05859375 C-176.97862549 157.36797852 -177.13693848 156.67736328 -177.30004883 155.96582031 C-185.29113154 120.0475 -176.5282279 83.71155014 -157.2578125 52.99609375 C-139.37045986 25.49389885 -112.57380902 6.9633461 -81.5078125 -2.87890625 C-80.86231445 -3.09063477 -80.21681641 -3.30236328 -79.55175781 -3.52050781 C-55.41493383 -11.05654736 -23.18563117 -9.86119224 0 0 Z " fill="#F48220" transform="translate(235.5078125,35.87890625)"/>
<path d="M0 0 C1.32257813 -0.01836914 1.32257813 -0.01836914 2.671875 -0.03710938 C22.08320255 -0.07980291 40.11399077 8.06031169 53.90625 21.47265625 C55.25203125 22.81650391 55.25203125 22.81650391 56.625 24.1875 C57.63046875 25.17556641 57.63046875 25.17556641 58.65625 26.18359375 C73.83261748 42.22225484 78.50717949 63.44344888 77.99609375 84.86328125 C76.95738289 105.43419206 65.66012074 123.45077069 51.26171875 137.4921875 C36.09491229 150.59426905 15.185206 157.51260927 -4.7109375 156.59765625 C-23.41598278 155.20505748 -39.59273311 147.87741184 -53.375 135.1875 C-54.00535156 134.64867187 -54.63570312 134.10984375 -55.28515625 133.5546875 C-67.4133436 122.55920102 -76.06021918 104.17171336 -77.69482422 88.02905273 C-77.84785485 84.67968887 -77.893604 81.35277536 -77.875 78 C-77.87000488 76.81398193 -77.86500977 75.62796387 -77.85986328 74.40600586 C-77.66957607 64.7899399 -76.23986227 57.00389669 -72.375 48.1875 C-71.94058594 47.14078125 -71.50617188 46.0940625 -71.05859375 45.015625 C-61.63377206 24.28638756 -45.2541462 11.51794994 -24.640625 3.06640625 C-16.63219591 0.18061025 -8.426841 0.00610641 0 0 Z " fill="#F5821F" transform="translate(247.375,141.8125)"/>
<path d="M0 0 C25.72856726 21.93873531 42.34378887 53.60909999 45.2434082 87.39648438 C45.8847585 100.0276887 46.13308964 113.02146443 43.2434082 125.39648438 C42.82381836 127.20246094 42.82381836 127.20246094 42.39575195 129.04492188 C40.52662148 136.50630911 38.16044546 143.53492636 35.09887695 150.59179688 C33.39388059 156.18169361 36.15956615 161.07141477 38.1184082 166.33398438 C45.95359814 187.94789879 48.76027289 213.87594979 43.2434082 236.39648438 C43.06567871 237.1410791 42.88794922 237.88567383 42.70483398 238.65283203 C34.01378671 274.23980127 13.24672808 303.9106544 -18.1315918 323.14648438 C-25.34771357 327.44996801 -32.86439202 330.56409212 -40.7565918 333.39648438 C-41.58803711 333.70199219 -42.41948242 334.0075 -43.27612305 334.32226562 C-49.3145002 336.4438576 -55.52628701 337.95202824 -61.7565918 339.39648438 C-62.84278809 339.65776123 -62.84278809 339.65776123 -63.95092773 339.92431641 C-67.45409423 340.51386775 -70.90214157 340.57807435 -74.4440918 340.59960938 C-75.18304688 340.60530945 -75.92200195 340.61100952 -76.68334961 340.61688232 C-78.24664901 340.62630326 -79.80996801 340.63285472 -81.37329102 340.63671875 C-83.72148215 340.64634051 -86.06876508 340.67735505 -88.41674805 340.70898438 C-97.63163932 340.77328254 -105.82337887 339.88250452 -114.7565918 337.39648438 C-116.79651993 336.93047426 -118.83800463 336.47117729 -120.8815918 336.02148438 C-126.85945858 334.53100292 -132.25475984 332.13656998 -137.7565918 329.39648438 C-137.7565918 329.06648438 -137.7565918 328.73648437 -137.7565918 328.39648438 C-136.47268555 328.29851562 -135.1887793 328.20054687 -133.8659668 328.09960938 C-106.75649765 325.8795154 -80.64045266 319.82516117 -56.7565918 306.39648438 C-55.83257568 305.8927832 -55.83257568 305.8927832 -54.88989258 305.37890625 C-16.74077037 284.4855964 11.78684509 247.1756987 24.55102539 205.83203125 C32.92140276 176.38813682 34.55397861 144.23817678 27.2434082 114.39648438 C27.03441895 113.54199707 26.82542969 112.68750977 26.61010742 111.80712891 C18.6907812 80.66964324 2.30840456 54.38616989 -19.7565918 31.39648438 C-20.29010254 30.84033447 -20.82361328 30.28418457 -21.37329102 29.71118164 C-38.95092328 11.72045276 -61.33289794 -0.10556685 -84.7565918 -8.60351562 C-85.81749023 -9.01085937 -86.87838867 -9.41820313 -87.97143555 -9.83789062 C-103.90372347 -15.64770109 -120.96466209 -17.32220372 -137.7565918 -18.60351562 C-134.32936115 -21.60343253 -130.60905962 -22.83052814 -126.3190918 -24.10351562 C-125.61260498 -24.31782227 -124.90611816 -24.53212891 -124.17822266 -24.75292969 C-80.52703597 -37.76731385 -35.20844326 -29.08658684 0 0 Z " fill="#0289CE" transform="translate(387.756591796875,64.603515625)"/>
<path d="M0 0 C1.15177734 -0.01224609 2.30355469 -0.02449219 3.49023438 -0.03710938 C21.57459038 -0.06753734 38.29966036 4.3415761 54.9375 11.1875 C54.9375 11.5175 54.9375 11.8475 54.9375 12.1875 C51.82488513 12.92738386 48.77615739 13.31184152 45.59375 13.546875 C12.09036557 16.02241378 -19.46808046 27.44998208 -46.0625 48.1875 C-46.97644531 48.87972656 -47.89039063 49.57195312 -48.83203125 50.28515625 C-79.31077619 74.15942938 -100.86164699 108.70080544 -109.25 146.4375 C-109.50974609 147.56929687 -109.76949219 148.70109375 -110.03710938 149.8671875 C-111.87268635 157.96839029 -113.21263425 165.74789461 -113.265625 174.078125 C-113.27263931 174.81609818 -113.27965363 175.55407135 -113.28688049 176.31440735 C-113.30432175 178.68883409 -113.31073467 181.06301151 -113.3125 183.4375 C-113.31317474 184.24806854 -113.31384949 185.05863708 -113.31454468 185.89376831 C-113.29862993 197.90940104 -112.8644458 209.45401324 -110.0625 221.1875 C-109.88557617 221.96254883 -109.70865234 222.73759766 -109.52636719 223.53613281 C-102.79423224 252.59244584 -89.99892788 278.9212233 -70.0625 301.1875 C-69.33546875 302.04730469 -68.6084375 302.90710938 -67.859375 303.79296875 C-39.59719873 336.71317037 3.3675055 355.07534827 45.96875 358.5234375 C49.29076881 358.76926689 52.61214465 358.99279506 55.9375 359.1875 C47.13844725 367.98655275 27.89533732 369.90536289 15.9375 371.1875 C14.82810059 371.30714111 14.82810059 371.30714111 13.69628906 371.42919922 C-19.46542568 374.71659697 -53.01495691 364.42904151 -78.97631836 343.54907227 C-107.93506501 319.46026499 -123.89215068 287.01794685 -127.78125 249.66015625 C-127.8740625 248.51417969 -127.966875 247.36820313 -128.0625 246.1875 C-128.1346875 245.29933594 -128.206875 244.41117188 -128.28125 243.49609375 C-128.92096768 226.46361048 -125.35754216 205.00475548 -117.3125 189.90234375 C-115.82295724 186.66724307 -115.94547516 185.51759753 -117.0625 182.1875 C-117.8049304 180.28036467 -118.57894917 178.38538355 -119.375 176.5 C-122.60304462 168.30357366 -124.43193248 159.82930948 -126.0625 151.1875 C-126.23974609 150.24946533 -126.41699219 149.31143066 -126.59960938 148.3449707 C-128.89412392 132.69362231 -128.19169354 114.42222617 -124.0625 99.1875 C-123.81306641 98.17937256 -123.81306641 98.17937256 -123.55859375 97.15087891 C-118.06243361 74.93723169 -106.26190948 56.06537187 -91.0625 39.1875 C-90.46953125 38.52234375 -89.8765625 37.8571875 -89.265625 37.171875 C-80.1309749 27.49457241 -68.76526235 20.31751837 -57.0625 14.1875 C-55.37447266 13.27677734 -55.37447266 13.27677734 -53.65234375 12.34765625 C-37.02323877 3.93181907 -18.53642464 0.01013473 0 0 Z " fill="#0389CE" transform="translate(189.0625,33.8125)"/>
<path d="M0 0 C0.92031006 0.00531738 1.84062012 0.01063477 2.78881836 0.01611328 C18.23590125 0.23185085 18.23590125 0.23185085 23.52734375 3.3828125 C27.86285448 5.17514654 32.41680871 3.02088325 36.6875 1.6875 C42.59621487 0.17700146 48.25030188 -0.04921619 54.3125 -0.0625 C55.19107666 -0.06773682 56.06965332 -0.07297363 56.97485352 -0.07836914 C71.70146001 0.07792902 85.08649147 5.14603494 96.625 14.25 C97.24890625 14.71019531 97.8728125 15.17039063 98.515625 15.64453125 C109.83615519 24.49188255 117.64386335 39.34902946 120.625 53.25 C120.9983849 57.30307107 121.00145069 61.307736 120.9375 65.375 C120.94072266 66.40753906 120.94394531 67.44007813 120.94726562 68.50390625 C120.89930246 75.34955741 120.01232286 81.07401807 117.8515625 87.578125 C116.40526832 92.19875315 116.64541409 94.85235148 118.5 99.3125 C123.86847806 113.45252526 121.95630116 132.07487982 116.1484375 145.71875 C108.38397727 162.74811534 95.86896732 175.01137872 78.625 182.25 C63.9841311 187.6853595 48.55173872 188.0073524 33.625 183.25 C32.94953125 182.86585938 32.2740625 182.48171875 31.578125 182.0859375 C27.59110135 180.37949138 23.29671114 182.62449554 19.30981445 183.76147461 C1.17179848 188.76544748 -15.91157801 186.61946387 -32.5 177.62109375 C-48.95082656 168.0261329 -59.01925188 151.9851401 -64 133.9921875 C-66.50344062 123.45687488 -66.17941342 113.22632265 -63.3125 102.875 C-61.29210756 95.56743731 -61.24498799 90.62291108 -63.125 83.34765625 C-67.80582665 64.78187748 -65.40929016 47.22429718 -55.69140625 30.7890625 C-46.6694667 16.52920273 -31.81957762 5.11544853 -15.26171875 1.16796875 C-10.15517446 0.07486792 -5.20698628 -0.05420477 0 0 Z M-21.375 32.25 C-22.14070313 32.84167969 -22.90640625 33.43335938 -23.6953125 34.04296875 C-37.83048924 45.59244243 -47.86320191 64.25848571 -49.69311523 82.40454102 C-49.8477839 85.7553613 -49.89384841 89.08319935 -49.875 92.4375 C-49.86927979 93.62496826 -49.86355957 94.81243652 -49.85766602 96.03588867 C-49.66267442 105.66663539 -48.27028574 113.42658761 -44.375 122.25 C-43.98151367 123.16676514 -43.98151367 123.16676514 -43.58007812 124.10205078 C-39.97146681 132.39017425 -35.43898364 139.53371533 -29.375 146.25 C-28.52808594 147.20132813 -28.52808594 147.20132813 -27.6640625 148.171875 C-13.8329805 162.84710754 5.61367302 170.77048644 25.52026367 171.82226562 C46.71373651 172.29689394 67.34439721 163.78021604 82.625 149.25 C97.88973062 133.4628158 106.4416138 113.95243578 106.08081055 91.92749023 C105.22250001 69.25848564 96.25032797 49.32125771 79.66796875 33.875 C51.34441467 8.76246809 7.51654626 8.48139565 -21.375 32.25 Z " fill="#0788CC" transform="translate(219.375,126.75)"/>
<path d="M0 0 C8.84831935 3.95549299 8.84831935 3.95549299 18.19604492 2.58789062 C20.68821306 1.45916401 23.12230041 0.22788683 25.5625 -1.00830078 C28.93422632 -2.5295022 32.46358628 -3.35009806 36.0546875 -4.19140625 C37.33472656 -4.49691406 38.61476563 -4.80242188 39.93359375 -5.1171875 C45.84902807 -6.38338914 51.48918901 -7.05528099 57.5390625 -7.1171875 C58.69417328 -7.12929512 58.69417328 -7.12929512 59.87261963 -7.14164734 C61.50311069 -7.15543178 63.13362993 -7.16617897 64.76416016 -7.17407227 C66.39478308 -7.18547859 68.02537214 -7.20574536 69.65576172 -7.2355957 C104.3351487 -7.86837962 136.46893828 6.4107928 161.4921875 30.12109375 C162.389375 30.95382813 163.2865625 31.7865625 164.2109375 32.64453125 C188.12117348 55.54731347 202.50397193 89.08136549 203.73046875 122.125 C204.10783732 140.89527873 202.01224362 158.6880917 194.69116211 176.09667969 C192.98417178 180.2199514 191.9542211 182.73959837 193.4921875 187.12109375 C193.69320068 187.72888672 193.89421387 188.33667969 194.10131836 188.96289062 C194.83500513 191.16935896 195.60109299 193.36318377 196.3671875 195.55859375 C208.54611829 231.27135713 205.07002823 267.89487799 188.5546875 301.55859375 C172.19771284 333.54008276 143.95583566 357.71487455 109.78515625 368.83984375 C79.82705303 378.05984511 49.344254 377.85100897 20.11108398 366.32006836 C12.55702992 363.42139246 7.80635346 364.90914049 0.36499023 367.54663086 C-25.27277064 376.61156877 -52.08799483 378.42870289 -78.5078125 371.12109375 C-79.25111816 370.92273926 -79.99442383 370.72438477 -80.76025391 370.52001953 C-103.37171763 364.31285423 -122.55975688 352.08966455 -139.5078125 336.12109375 C-140.41080078 335.29738281 -140.41080078 335.29738281 -141.33203125 334.45703125 C-163.05015974 313.90327795 -178.05719125 280.60243479 -179.68481445 250.88989258 C-180.01613527 232.98404865 -180.11063938 215.70770926 -173.47265625 198.796875 C-168.5816182 186.97599813 -168.5816182 186.97599813 -170.8203125 174.87109375 C-171.73058553 172.94416491 -172.67017785 171.03460997 -173.62109375 169.12744141 C-175.19264606 165.5715447 -175.98845487 161.8437312 -176.8203125 158.05859375 C-176.97862549 157.36797852 -177.13693848 156.67736328 -177.30004883 155.96582031 C-185.29113154 120.0475 -176.5282279 83.71155014 -157.2578125 52.99609375 C-139.37045986 25.49389885 -112.57380902 6.9633461 -81.5078125 -2.87890625 C-80.86231445 -3.09063477 -80.21681641 -3.30236328 -79.55175781 -3.52050781 C-55.41493383 -11.05654736 -23.18563117 -9.86119224 0 0 Z M-81.5078125 3.12109375 C-82.76335937 3.48203125 -84.01890625 3.84296875 -85.3125 4.21484375 C-100.84415431 9.23662574 -115.12764897 17.56751172 -127.5078125 28.12109375 C-128.41015625 28.88421875 -129.3125 29.64734375 -130.2421875 30.43359375 C-153.63711938 50.85098884 -171.26408556 81.71871453 -173.5078125 113.12109375 C-174.4797484 134.9922228 -174.66283076 160.5627396 -163.296875 180.21484375 C-161.86172963 183.6819276 -163.28247155 186.52716537 -164.55859375 189.890625 C-164.97496094 190.89480469 -165.39132813 191.89898437 -165.8203125 192.93359375 C-179.09259941 227.03493207 -175.83408591 262.97904467 -161.3828125 296.12109375 C-147.26238337 327.0796915 -119.98355097 350.25642224 -88.6328125 362.43359375 C-58.29399487 373.50133839 -25.54790405 372.23852562 4.17822266 360.05175781 C8.84568455 358.17608267 12.1338458 357.18542648 16.89453125 359.07421875 C17.73113281 359.5021875 18.56773437 359.93015625 19.4296875 360.37109375 C25.9043926 363.44723224 32.5277616 365.45978799 39.4921875 367.12109375 C40.24395264 367.3013208 40.99571777 367.48154785 41.77026367 367.66723633 C49.65488528 369.34244768 57.48474603 369.45986064 65.5065918 369.43676758 C67.79069063 369.43361308 70.07348255 369.45712935 72.35742188 369.48242188 C81.83053657 369.5225489 90.2843944 368.50779712 99.4921875 366.12109375 C100.48379883 365.88777344 101.47541016 365.65445312 102.49707031 365.4140625 C109.96329824 363.64657059 116.62443021 360.48068175 123.4921875 357.12109375 C124.4821875 356.66863281 125.4721875 356.21617187 126.4921875 355.75 C155.4247792 342.16861054 178.09941459 315.74230331 189.4921875 286.12109375 C191.87381301 279.22281606 193.77391764 272.2104695 195.4921875 265.12109375 C195.7603125 264.02925781 196.0284375 262.93742187 196.3046875 261.8125 C200.86290812 238.48327363 198.06176506 210.10535054 187.7734375 188.44140625 C185.66663408 182.98170227 187.63561135 179.55538721 189.8046875 174.37109375 C191.87041463 169.10199266 193.44686653 163.87910331 194.7421875 158.37109375 C194.90501221 157.68692383 195.06783691 157.00275391 195.2355957 156.29785156 C203.11125741 121.41573863 194.95973341 85.94460967 176.3046875 56.05859375 C158.05340271 27.97938625 129.49967004 8.66778987 97.00390625 0.86328125 C70.45068752 -4.74863372 41.46875517 -3.21422407 16.6328125 8.421875 C11.02055974 10.25507435 6.88969674 8.69175939 1.6796875 6.37109375 C-3.91556234 3.99173946 -9.45918082 2.18314541 -15.3828125 0.80859375 C-16.05932861 0.6497168 -16.73584473 0.49083984 -17.43286133 0.32714844 C-38.64008644 -4.37351527 -60.80500212 -3.02217343 -81.5078125 3.12109375 Z " fill="#F8FBFD" transform="translate(235.5078125,35.87890625)"/>
<path d="M0 0 C5.58728447 2.11387058 9.40516628 4.48197397 12 10 C12.94898585 16.82897664 12.52407283 23.04553212 9 29 C5.71768079 32.77466709 3.58728169 34.75223833 -1.48828125 35.23828125 C-7.54656353 35.39748922 -11.29956464 35.2418563 -16 31 C-20.36300683 26.04739765 -21.36171083 23.16423357 -21.27734375 16.66796875 C-20.68528193 10.97250081 -18.1863418 6.76095498 -13.875 3.0625 C-9.16671883 -0.31517997 -5.72089373 -0.78939464 0 0 Z " fill="#0B88CA" transform="translate(215,338)"/>
<path d="M0 0 C7.78850242 2.78847618 15.24951647 8.49903295 19 16 C20.10386274 22.60920351 18.51840439 26.67861199 14.703125 32.0546875 C11.10633939 36.16294263 7.94051799 37.75743525 2.5 38.4375 C-4.81174008 38.38333896 -11.42474959 33.33775324 -17 29 C-15.33098598 24.03222885 -12.50155841 19.95497739 -9.625 15.625 C-6.23904045 10.50079384 -2.98832066 5.36764706 0 0 Z " fill="#0C88CA" transform="translate(165,316)"/>
<path d="M0 0 C2.31 0 4.62 0 7 0 C8.32040894 11.05842489 9.32748137 21.84744013 9 33 C6.36 33.33 3.72 33.66 1 34 C0.67725098 33.50072998 0.35450195 33.00145996 0.02197266 32.48706055 C-1.44346634 30.22039898 -2.90922969 27.95394734 -4.375 25.6875 C-4.88289063 24.90181641 -5.39078125 24.11613281 -5.9140625 23.30664062 C-6.40390625 22.54931641 -6.89375 21.79199219 -7.3984375 21.01171875 C-7.84880371 20.31522217 -8.29916992 19.61872559 -8.76318359 18.90112305 C-9.83083893 17.2600192 -10.9139897 15.62901545 -12 14 C-12 21.26 -12 28.52 -12 36 C-13.98 36 -15.96 36 -18 36 C-18.50766936 31.83423084 -19.00474723 27.66726208 -19.5 23.5 C-19.64308594 22.32695312 -19.78617188 21.15390625 -19.93359375 19.9453125 C-20.64467172 13.91808019 -21.18026954 8.06907438 -21 2 C-17.88278243 1.52664474 -15.10248955 1.36695763 -12 2 C-9.5084969 4.16720512 -8.14542321 6.78556268 -6.625 9.6875 C-6.21378906 10.40873047 -5.80257813 11.12996094 -5.37890625 11.87304688 C-4.60923804 13.2280094 -3.85304981 14.59079339 -3.11572266 15.96362305 C-1.8100925 18.34661236 -0.3980004 20.66999934 1 23 C0.505 11.615 0.505 11.615 0 0 Z " fill="#0E88C8" transform="translate(263,341)"/>
<path d="M0 0 C3.13538158 0.67808848 4.83114184 2.09384507 6.96875 4.42578125 C7.78125 6.67578125 7.78125 6.67578125 7.96875 8.42578125 C8.29875 8.09578125 8.62875 7.76578125 8.96875 7.42578125 C11.66529854 7.35258504 14.33566458 7.33335588 17.03125 7.36328125 C17.78986328 7.36779297 18.54847656 7.37230469 19.33007812 7.37695312 C21.20966871 7.38877445 23.08921899 7.40671047 24.96875 7.42578125 C24.09375 12.17578125 24.09375 12.17578125 22.96875 14.42578125 C19.40549486 14.70373338 15.86236445 14.74136956 12.2890625 14.7890625 C8.78703666 15.07874205 8.78703666 15.07874205 7.0234375 17.96875 C6.67539063 18.77957031 6.32734375 19.59039062 5.96875 20.42578125 C6.62875 20.52890625 7.28875 20.63203125 7.96875 20.73828125 C11.80716009 21.61791689 15.29971691 22.99548021 18.96875 24.42578125 C18.30875 26.40578125 17.64875 28.38578125 16.96875 30.42578125 C10.52806658 29.49333389 4.74762068 27.4019593 -1.34375 25.17578125 C-3.00760742 24.60150391 -3.00760742 24.60150391 -4.70507812 24.015625 C-5.75759766 23.63019531 -6.81011719 23.24476563 -7.89453125 22.84765625 C-8.85657471 22.5031543 -9.81861816 22.15865234 -10.80981445 21.80371094 C-13.03125 20.42578125 -13.03125 20.42578125 -13.89208984 17.93066406 C-14.20528881 12.29308267 -10.96648344 7.09584096 -8.28125 2.30078125 C-5.55828051 0.03164001 -3.51608222 -0.22959492 0 0 Z " fill="#0B88CA" transform="translate(112.03125,155.57421875)"/>
<path d="M0 0 C3.44004627 1.14668209 4.26635169 1.87943304 6 5 C5.55057717 8.58751119 4.43260701 11.59078752 2.93359375 14.86328125 C2.53076172 15.74951172 2.12792969 16.63574219 1.71289062 17.54882812 C1.29201172 18.46083984 0.87113281 19.37285156 0.4375 20.3125 C0.01275391 21.24384766 -0.41199219 22.17519531 -0.84960938 23.13476562 C-1.89506343 25.4253672 -2.94531756 27.71363659 -4 30 C0.36015101 26.74205838 4.71066375 23.47604395 9 20.125 C9.763125 19.52945312 10.52625 18.93390625 11.3125 18.3203125 C11.869375 17.88460938 12.42625 17.44890625 13 17 C14.9375 17.8125 14.9375 17.8125 17 19 C17.495 20.485 17.495 20.485 18 22 C12.54513127 26.8676774 6.96622511 31.52187057 1.1875 36 C0.43791016 36.59683594 -0.31167969 37.19367188 -1.08398438 37.80859375 C-1.80521484 38.36675781 -2.52644531 38.92492187 -3.26953125 39.5 C-3.91510986 40.0053125 -4.56068848 40.510625 -5.22583008 41.03125 C-5.81130615 41.3509375 -6.39678223 41.670625 -7 42 C-10.44004627 40.85331791 -11.26635169 40.12056696 -13 37 C-12.55057717 33.41248881 -11.43260701 30.40921248 -9.93359375 27.13671875 C-9.53076172 26.25048828 -9.12792969 25.36425781 -8.71289062 24.45117188 C-8.29201172 23.53916016 -7.87113281 22.62714844 -7.4375 21.6875 C-7.01275391 20.75615234 -6.58800781 19.82480469 -6.15039062 18.86523438 C-5.10493657 16.5746328 -4.05468244 14.28636341 -3 12 C-3.46374023 12.39904541 -3.92748047 12.79809082 -4.40527344 13.20922852 C-6.50923132 15.00695065 -8.62915845 16.78473576 -10.75 18.5625 C-11.84441406 19.50512695 -11.84441406 19.50512695 -12.9609375 20.46679688 C-13.66992188 21.05654297 -14.37890625 21.64628906 -15.109375 22.25390625 C-15.75874023 22.80377197 -16.40810547 23.3536377 -17.07714844 23.92016602 C-19 25 -19 25 -21.16503906 24.80053711 C-23 24 -23 24 -24.25 21.9375 C-24.4975 21.298125 -24.745 20.65875 -25 20 C-24.11699219 19.31035156 -23.23398438 18.62070312 -22.32421875 17.91015625 C-21.11195379 16.96096991 -19.89971617 16.01174864 -18.6875 15.0625 C-18.05610107 14.56975586 -17.42470215 14.07701172 -16.77416992 13.56933594 C-13.71409062 11.1718434 -10.68240124 8.75581892 -7.7265625 6.23046875 C-6.76492187 5.41191406 -5.80328125 4.59335937 -4.8125 3.75 C-3.95269531 3.00234375 -3.09289062 2.2546875 -2.20703125 1.484375 C-1.47871094 0.99453125 -0.75039062 0.5046875 0 0 Z " fill="#0B88CA" transform="translate(138,286)"/>
<path d="M0 0 C1.89492187 0.01353516 1.89492187 0.01353516 3.828125 0.02734375 C4.79234375 0.03894531 5.7565625 0.05054688 6.75 0.0625 C4.27906164 2.53343836 2.17018699 3.09233838 -1.125 4.25 C-22.73098133 12.41173083 -39.48435379 28.14640239 -49.25 49.0625 C-51.15809653 53.64825061 -52.75310777 58.327139 -54.25 63.0625 C-54.58 63.0625 -54.91 63.0625 -55.25 63.0625 C-56.02346618 46.13218463 -52.338284 32.26812715 -41.25 18.9375 C-33.07163632 10.2910145 -22.66612129 4.31319216 -11.25 1.0625 C-10.33347656 0.77052734 -10.33347656 0.77052734 -9.3984375 0.47265625 C-6.25495938 -0.1274623 -3.1955452 -0.02958838 0 0 Z " fill="#EC8224" transform="translate(218.25,134.9375)"/>
<path d="M0 0 C0.33 0 0.66 0 1 0 C2.06039575 17.93247034 -2.43696029 32.23766142 -14.1875 46.1875 C-22.87214021 55.4530526 -36.08544696 63.30814894 -49 64 C-53.00172131 64.06070879 -56.99831325 64.05913823 -61 64 C-58.71494813 61.71494813 -57.23661712 61.29911037 -54.1875 60.3125 C-33.29835044 52.88524682 -17.32933697 38.53101706 -7 19 C-4.2773288 12.79452096 -2.12685648 6.42847163 0 0 Z " fill="#ED8224" transform="translate(331,240)"/>
<path d="M0 0 C16.87667382 -0.57752876 31.6218803 4.0472702 44.53125 15.18359375 C54.65354662 24.71135789 61.1314599 36.19637041 63 50 C63.06578002 52.45754141 63.08569162 54.91668778 63.0625 57.375 C63.05347656 58.62023437 63.04445313 59.86546875 63.03515625 61.1484375 C63.02355469 62.08945313 63.01195312 63.03046875 63 64 C61.00079282 61.00118923 59.96834144 58.37886693 58.75 55 C54.89244258 44.84853312 49.90493452 36.35528607 43 28 C42.39929688 27.19949219 41.79859375 26.39898437 41.1796875 25.57421875 C30.88391089 13.41486967 15.10230155 5.3149433 0 1 C0 0.67 0 0.34 0 0 Z " fill="#EE8223" transform="translate(269,135)"/>
<path d="M0 0 C2.07970594 3.11955891 2.97311177 5.75614579 4.125 9.3125 C12.03290599 32.13671228 27.95695674 47.80598144 49.39355469 58.4387207 C53.18837338 60.26029091 56.96794528 61.75792742 61 63 C61 63.33 61 63.66 61 64 C44.54286413 64.45784922 31.00225068 60.99050014 18.5625 49.75 C9.39559436 41.05770784 1.76713726 28.70478681 0 16 C-0.068089 13.21924515 -0.09478336 10.46635261 -0.0625 7.6875 C-0.05798828 6.94693359 -0.05347656 6.20636719 -0.04882812 5.44335938 C-0.03712175 3.62887101 -0.01918898 1.81442466 0 0 Z " fill="#EE8222" transform="translate(163,240)"/>
<path d="M0 0 C2.1875 2.5 2.1875 2.5 4 5 C1.71999266 11.09896765 -1.65798697 16.52097875 -4.9375 22.125 C-5.57107422 23.22199219 -6.20464844 24.31898438 -6.85742188 25.44921875 C-7.47037109 26.49980469 -8.08332031 27.55039063 -8.71484375 28.6328125 C-9.55196899 30.06971436 -9.55196899 30.06971436 -10.40600586 31.53564453 C-11.79099779 33.67687726 -13.11414465 35.30369036 -15 37 C-16.32 35.35 -17.64 33.7 -19 32 C-18.690625 31.2575 -18.38125 30.515 -18.0625 29.75 C-17.711875 28.8425 -17.36125 27.935 -17 27 C-16.7525 26.37222656 -16.505 25.74445313 -16.25 25.09765625 C-15.78665107 22.90367418 -15.78665107 22.90367418 -17.15234375 20.82421875 C-19.00303188 18.6090625 -20.67406037 16.71861095 -23 15 C-25.84855449 14.79427106 -28.15966599 15.44124577 -31 16 C-33.5 14.1875 -33.5 14.1875 -35 12 C-35 11.34 -35 10.68 -35 10 C-30.97975122 8.70650911 -26.95869865 7.4155346 -22.9375 6.125 C-21.80376953 5.76019531 -20.67003906 5.39539063 -19.50195312 5.01953125 C-3.85014205 0 -3.85014205 0 0 0 Z " fill="#0D88C9" transform="translate(370,124)"/>
<path d="M0 0 C0.88204102 0.00451172 1.76408203 0.00902344 2.67285156 0.01367188 C3.56649414 0.01560547 4.46013672 0.01753906 5.38085938 0.01953125 C13.48519767 0.07135295 21.53149939 0.50680634 29.61035156 1.13867188 C28.95035156 3.44867188 28.29035156 5.75867188 27.61035156 8.13867188 C27.00707031 8.10644531 26.40378906 8.07421875 25.78222656 8.04101562 C23.14226328 8.07933767 21.10663859 8.25510637 18.61035156 9.13867188 C16.44368443 11.88311691 15.28891281 14.71711305 14.61035156 18.13867188 C14.98923163 20.80977635 15.19908077 21.7748554 17.23535156 23.57617188 C17.91597656 24.34960938 17.91597656 24.34960938 18.61035156 25.13867188 C18.36582032 28.4805988 18.00491599 29.74410745 15.61035156 32.13867188 C12.14836815 28.8747555 8.71376594 25.58516168 5.30151367 22.26928711 C4.13771798 21.14567259 2.96683665 20.02934854 1.78881836 18.9206543 C0.09416604 17.3232889 -1.57307219 15.70122812 -3.23730469 14.07226562 C-4.03250267 13.33900307 -4.03250267 13.33900307 -4.84376526 12.59092712 C-6.30004883 11.13647461 -6.30004883 11.13647461 -8.38964844 8.13867188 C-8.15976317 0.55731811 -7.28879792 0.01722441 0 0 Z " fill="#0988CC" transform="translate(362.3896484375,266.861328125)"/>
<path d="M0 0 C2.0871582 1.21166992 2.0871582 1.21166992 4.30078125 2.73046875 C5.11353516 3.28669922 5.92628906 3.84292969 6.76367188 4.41601562 C7.60478516 5.00060547 8.44589844 5.58519531 9.3125 6.1875 C10.14201172 6.75275391 10.97152344 7.31800781 11.82617188 7.90039062 C16.82049213 11.34162313 21.46787039 14.9694016 26 19 C24.25 21.0625 24.25 21.0625 22 23 C19.49525095 22.83840329 17.90146048 21.94924223 15.671875 20.80078125 C13.02942615 19.73229432 13.02942615 19.73229432 10.54296875 20.80078125 C8.05830446 22.39541654 5.9917514 23.81079049 4 26 C3.52711752 28.49107733 3.66654412 30.49599554 3.94140625 33.0078125 C4 35 4 35 2.125 37.0625 C0 38 0 38 -2 38 C-2.86361564 34.00003556 -3.71774816 29.99817041 -4.56347656 25.99438477 C-4.8519476 24.63511829 -5.14291899 23.27637979 -5.43652344 21.91821289 C-5.86023418 19.95602861 -6.27395234 17.99169512 -6.6875 16.02734375 C-6.93886719 14.84906006 -7.19023437 13.67077637 -7.44921875 12.45678711 C-8.01859081 8.88332122 -8.21699625 5.61171433 -8 2 C-5.28338895 -1.10469834 -3.7648042 -1.29697224 0 0 Z " fill="#0A88CB" transform="translate(170,87)"/>
<path d="M0 0 C6.6 0 13.2 0 20 0 C20 1.65 20 3.3 20 5 C15.71 5 11.42 5 7 5 C7 7.97 7 10.94 7 14 C10.96 14 14.92 14 19 14 C19 15.65 19 17.3 19 19 C15.04 19 11.08 19 7 19 C7 21.97 7 24.94 7 28 C11.29 28 15.58 28 20 28 C20 29.98 20 31.96 20 34 C13.4 34 6.8 34 0 34 C0 22.78 0 11.56 0 0 Z " fill="#1288C5" transform="translate(243,64)"/>
<path d="M0 0 C2.475 0.99 2.475 0.99 5 2 C3.82548531 4.77612564 2.33031986 6.8650269 0.375 9.125 C-2.21229382 11.63546917 -2.21229382 11.63546917 -2 14 C-0.0399719 15.63676257 -0.0399719 15.63676257 2 17 C6.20626034 15.49776416 7.73900021 12.71449966 10 9 C11.32 9.66 12.64 10.32 14 11 C14 14.39593478 13.47834052 15.06619881 11.5 17.6875 C11.0359375 18.31011719 10.571875 18.93273437 10.09375 19.57421875 C9.7328125 20.04472656 9.371875 20.51523438 9 21 C10.62339805 22.70884005 12.29319053 24.37446717 14 26 C14.66 26 15.32 26 16 26 C17.58455866 24.21276059 17.58455866 24.21276059 19.125 22 C19.66382813 21.2575 20.20265625 20.515 20.7578125 19.75 C21.16773438 19.1725 21.57765625 18.595 22 18 C23.32 18.33 24.64 18.66 26 19 C26 23.98594047 23.99555463 26.06627742 21 29.75 C20.52304688 30.35199219 20.04609375 30.95398438 19.5546875 31.57421875 C18.37839461 33.05634779 17.19031607 34.52910943 16 36 C12.21653052 34.33673564 9.10581236 31.90652499 5.875 29.375 C5.30821533 28.93494629 4.74143066 28.49489258 4.1574707 28.04150391 C-0.93483043 24.07772818 -5.98092847 20.05604426 -11 16 C-9.32076975 12.19866558 -6.88537166 9.02917298 -4.375 5.75 C-3.95476562 5.19570312 -3.53453125 4.64140625 -3.1015625 4.0703125 C-2.07061281 2.71133337 -1.03570089 1.35536165 0 0 Z " fill="#0B88CB" transform="translate(131,113)"/>
<path d="M0 0 C0.33 1.65 0.66 3.3 1 5 C-3.95 7.475 -3.95 7.475 -9 10 C-8.67 12.31 -8.34 14.62 -8 17 C-7.30132812 16.71125 -6.60265625 16.4225 -5.8828125 16.125 C-4.97273438 15.75375 -4.06265625 15.3825 -3.125 15 C-2.22007812 14.62875 -1.31515625 14.2575 -0.3828125 13.875 C2 13 2 13 4 13 C4.33 14.65 4.66 16.3 5 18 C3.71086513 18.67154933 2.41859796 19.33708859 1.125 20 C0.40570313 20.37125 -0.31359375 20.7425 -1.0546875 21.125 C-3 22 -3 22 -5 22 C-4.01 24.97 -3.02 27.94 -2 31 C-1.22914063 30.6390625 -0.45828125 30.278125 0.3359375 29.90625 C1.33882813 29.4421875 2.34171875 28.978125 3.375 28.5 C4.37273437 28.0359375 5.37046875 27.571875 6.3984375 27.09375 C9 26 9 26 11 26 C11.33 27.65 11.66 29.3 12 31 C10.13032395 31.98929461 8.25398622 32.96600469 6.375 33.9375 C5.33085937 34.48277344 4.28671875 35.02804687 3.2109375 35.58984375 C0.07583082 36.96669717 -2.61454632 37.59842216 -6 38 C-9.30163738 31.63904724 -12.07274114 25.14518322 -14.75 18.5 C-15.16121094 17.48679687 -15.57242187 16.47359375 -15.99609375 15.4296875 C-17.00027149 12.95427261 -18.00150092 10.47770963 -19 8 C-17.10545176 7.03912864 -15.20930419 6.08141031 -13.3125 5.125 C-12.25675781 4.59132813 -11.20101563 4.05765625 -10.11328125 3.5078125 C-2.87046632 0 -2.87046632 0 0 0 Z " fill="#0C88CA" transform="translate(301,329)"/>
<path d="M0 0 C0.66 1.65 1.32 3.3 2 5 C-0.31 6.32 -2.62 7.64 -5 9 C-5 10.98 -5 12.96 -5 15 C-4.05125 14.835 -3.1025 14.67 -2.125 14.5 C10.19825142 12.84688091 10.19825142 12.84688091 15.125 16 C17.05538918 19.08862268 17.79041731 21.27372771 17.5546875 24.94140625 C16.21921038 29.89771924 12.33454239 33.03788804 8.3125 35.9375 C6 37 6 37 3 37 C2.34 35.35 1.68 33.7 1 32 C1.56589844 31.68546875 2.13179688 31.3709375 2.71484375 31.046875 C3.44832031 30.61890625 4.18179687 30.1909375 4.9375 29.75 C5.66839844 29.33234375 6.39929688 28.9146875 7.15234375 28.484375 C9.15130557 27.13228127 9.15130557 27.13228127 9.81640625 24.890625 C9.90728516 23.95476562 9.90728516 23.95476562 10 23 C9.67 22.67 9.34 22.34 9 22 C5.44374336 22.04157154 1.89781912 22.12794301 -1.65429688 22.30273438 C-7.42583718 22.43672542 -7.42583718 22.43672542 -10.48046875 20.11328125 C-13.23676488 16.27997481 -13.40155737 13.73837692 -13 9 C-10.13475266 4.26132171 -5.74715584 0 0 0 Z " fill="#0B88CA" transform="translate(328,311)"/>
<path d="M0 0 C3.6875 1.5 3.6875 1.5 6 3 C5.67 4.98 5.34 6.96 5 9 C4.484375 8.690625 3.96875 8.38125 3.4375 8.0625 C0.33334577 6.70940713 -2.65115007 6.38640576 -6 6 C-6.85249558 8.30450035 -6.85249558 8.30450035 -7 11 C-5.35953972 13.02783056 -5.35953972 13.02783056 -3.0625 14.75 C0.05480298 17.64307592 1.62548925 19.36467466 1.8125 23.6875 C1.47412266 26.89376399 0.8671287 28.21702313 -0.875 31.0625 C-5.30740338 33.8105901 -8.91409064 33.86945198 -14 33 C-16.91548891 31.9061048 -19.30363402 30.59784651 -22 29 C-21.34 27.02 -20.68 25.04 -20 23 C-19.34 23.495 -18.68 23.99 -18 24.5 C-14.03366759 26.48316621 -11.39696738 26.22357461 -7 26 C-6.49620971 23.71305777 -6.49620971 23.71305777 -7 21 C-9.84151217 18.32651508 -9.84151217 18.32651508 -13 16 C-15.48100009 12.27849987 -15.62883168 9.30959315 -15 5 C-12.10190497 -1.62421721 -6.32452903 -0.87612523 0 0 Z " fill="#0B88CB" transform="translate(302,73)"/>
<path d="M0 0 C2.9375 1.3125 2.9375 1.3125 5 4 C6.00575448 10.13989163 5.6387525 15.80178215 2 21 C-0.33026864 23.41062274 -1.6179667 23.93497306 -4.9375 24.5 C-9.01103263 23.83493345 -10.40263771 22.11683475 -13 19 C-14.62543267 15.74913466 -14.56393954 12.51236256 -14 9 C-10.70485075 1.8564115 -8.1453564 -0.69028444 0 0 Z " fill="#F08222" transform="translate(215,344)"/>
<path d="M0 0 C5.26213961 1.66616845 9.39159587 4.93068369 13.8125 8.125 C14.60076172 8.68832031 15.38902344 9.25164062 16.20117188 9.83203125 C18.13746831 11.21677658 20.07022641 12.60618627 22 14 C21.34 15.32 20.68 16.64 20 18 C17.03824877 17.38722388 15.61941217 16.74627478 13 15 C12.01 15 11.02 15 10 15 C8.21444477 17.34298232 6.6276738 19.64118778 5.0625 22.125 C4.63259766 22.79015625 4.20269531 23.4553125 3.75976562 24.140625 C2.9090024 25.45743606 2.06208434 26.77674024 1.21923828 28.09863281 C-0.4851656 30.75660186 -2.24009721 33.37852067 -4 36 C-5.65 35.34 -7.3 34.68 -9 34 C-9 29.27693291 -7.9608655 28.00095051 -5.3125 24.1875 C-4.58675781 23.13433594 -3.86101562 22.08117187 -3.11328125 20.99609375 C-2.06720703 19.51302734 -2.06720703 19.51302734 -1 18 C-0.45730469 17.22785156 0.08539063 16.45570312 0.64453125 15.66015625 C1.75227966 14.09909294 2.8741427 12.54805379 4 11 C2.55746343 7.63408134 0.66735273 5.48952921 -2 3 C-1.34 2.01 -0.68 1.02 0 0 Z " fill="#0B88CB" transform="translate(330,88)"/>
<path d="M0 0 C2.4362793 0.16455078 2.4362793 0.16455078 5 1 C6.21020508 2.90185547 6.21020508 2.90185547 7.01953125 5.3671875 C7.31923828 6.25277344 7.61894531 7.13835937 7.92773438 8.05078125 C8.21970703 8.98277344 8.51167969 9.91476563 8.8125 10.875 C9.27946289 12.26138672 9.27946289 12.26138672 9.75585938 13.67578125 C12 20.47232143 12 20.47232143 12 24 C10.35 24.33 8.7 24.66 7 25 C5.74335022 22.09399739 5 20.20395416 5 17 C4.29391602 17.24234375 3.58783203 17.4846875 2.86035156 17.734375 C-0.34098687 18.82920958 -3.5454188 19.91469561 -6.75 21 C-7.86117188 21.3815625 -8.97234375 21.763125 -10.1171875 22.15625 C-11.18710937 22.5171875 -12.25703125 22.878125 -13.359375 23.25 C-14.34389648 23.58515625 -15.32841797 23.9203125 -16.34277344 24.265625 C-19 25 -19 25 -23 25 C-23.33 23.02 -23.66 21.04 -24 19 C-21.45884998 18.04027826 -18.91710543 17.08218506 -16.375 16.125 C-15.66214844 15.85558594 -14.94929688 15.58617187 -14.21484375 15.30859375 C-2.76028963 11 -2.76028963 11 2 11 C0.515 6.05 0.515 6.05 -1 1 C-0.67 0.67 -0.34 0.34 0 0 Z " fill="#0C88CA" transform="translate(385,158)"/>
<path d="M0 0 C0.81645473 3.20734009 1.62744888 6.41603716 2.4375 9.625 C2.66759766 10.52863281 2.89769531 11.43226562 3.13476562 12.36328125 C4.27532511 16.89245948 5.33107794 21.3713669 6 26 C6.88751953 25.65775391 6.88751953 25.65775391 7.79296875 25.30859375 C15.64147627 22.45342707 15.64147627 22.45342707 20 24 C20 25.32 20 26.64 20 28 C13.71105679 29.96939767 7.45054982 31.64746536 1 33 C-1.20837329 26.03422681 -3.32012912 19.04788146 -5.25 12 C-5.58515625 10.783125 -5.9203125 9.56625 -6.265625 8.3125 C-6.91252989 5.39454603 -7.15743142 2.96870684 -7 0 C-4.3333581 -1.33332095 -2.83319697 -0.67102033 0 0 Z " fill="#0E88C8" transform="translate(206,70)"/>
<path d="M0 0 C3.72872026 0.70262823 5.69763906 2.07201453 8.078125 5.12109375 C9.85591817 8.7444773 9.15891299 12.25422766 8 16 C6.17879704 18.81992717 4.99309044 20.50345478 2 22 C-2.23720693 22.42535668 -5.83080311 22.68440794 -9.5625 20.5 C-10.036875 20.005 -10.51125 19.51 -11 19 C-9.41467191 14.44435939 -7.00996919 10.68524231 -4.375 6.6875 C-3.95476562 6.04232422 -3.53453125 5.39714844 -3.1015625 4.73242188 C-2.07161759 3.15239276 -1.03634372 1.57583953 0 0 Z " fill="#F08222" transform="translate(168,325)"/>
<path d="M0 0 C4.69404989 2.54073334 8.46610778 5.85895185 12.4375 9.375 C13.72739456 10.50834767 15.01775329 11.64116729 16.30859375 12.7734375 C16.92589355 13.31581055 17.54319336 13.85818359 18.17919922 14.41699219 C20.75195121 16.65374787 23.37079989 18.82999558 26 21 C25.01 22.65 24.02 24.3 23 26 C19.14782294 25.4322188 17.33208392 23.71999284 14.5625 21.0625 C8.69079099 15.60330268 2.40371228 10.8078028 -4 6 C-2.84826645 3.53199953 -1.95216435 1.95216435 0 0 Z " fill="#0C88CA" transform="translate(341,294)"/>
<path d="M0 0 C0.99 0.99 1.98 1.98 3 3 C3 4.32 3 5.64 3 7 C-0.78948725 8.69246257 -4.57978832 10.38308753 -8.37084961 12.07202148 C-9.66013672 12.64671315 -10.94920122 13.22190452 -12.23803711 13.79760742 C-14.09170014 14.62550548 -15.94615899 15.45159717 -17.80078125 16.27734375 C-18.91622314 16.77484131 -20.03166504 17.27233887 -21.1809082 17.78491211 C-24 19 -24 19 -27 20 C-28.4606285 17.35261084 -29 16.10551666 -29 13 C-19.43 8.71 -9.86 4.42 0 0 Z " fill="#0C88CA" transform="translate(129,267)"/>
<path d="M0 0 C2.5 0.25 2.5 0.25 4.5 2.25 C4.125 5.875 4.125 5.875 3.5 9.25 C0.71176345 10.2826802 -0.3677274 10.29509293 -3.25 9.3125 C-3.9925 8.961875 -4.735 8.61125 -5.5 8.25 C-4.48237885 0.44823789 -4.48237885 0.44823789 0 0 Z " fill="#E68228" transform="translate(110.5,162.75)"/>
<path d="M0 0 C-1.37840216 2.83338222 -2.86418386 5.55688806 -4.5 8.25 C-4.9228125 8.95640625 -5.345625 9.6628125 -5.78125 10.390625 C-6.38453125 11.18726563 -6.38453125 11.18726563 -7 12 C-7.66 12 -8.32 12 -9 12 C-13 6.58823529 -13 6.58823529 -13 4 C-11.2097939 3.32942113 -9.41778511 2.6636531 -7.625 2 C-6.62726563 1.62875 -5.62953125 1.2575 -4.6015625 0.875 C-2 0 -2 0 0 0 Z " fill="#E2822B" transform="translate(366,131)"/>
<path d="M0 0 C4.51617599 -0.07654536 8.59085217 -0.10228696 13 1 C12.01 3.97 11.02 6.94 10 10 C8.27473958 8.50260417 6.54947917 7.00520833 4.82421875 5.5078125 C2.86501788 3.8359553 2.86501788 3.8359553 0 2 C0 1.34 0 0.68 0 0 Z " fill="#EF8221" transform="translate(362,273)"/>
<path d="M0 0 C2.89377093 1.44688546 5.18533078 2.75081864 7.75 4.625 C8.67039063 5.29402344 8.67039063 5.29402344 9.609375 5.9765625 C10.06828125 6.31429687 10.5271875 6.65203125 11 7 C9.74874616 10.75376152 8.4347596 11.24073289 5 13 C4.34 13 3.68 13 3 13 C2.01 8.71 1.02 4.42 0 0 Z " fill="#E68228" transform="translate(168,94)"/>
<path d="M0 0 C0.66 0.33 1.32 0.66 2 1 C2 5.62 2 10.24 2 15 C0.09681116 12.14521674 -0.4619099 10.58058692 -1.125 7.3125 C-1.29257812 6.50425781 -1.46015625 5.69601563 -1.6328125 4.86328125 C-1.75398438 4.24839844 -1.87515625 3.63351563 -2 3 C-1.34 3 -0.68 3 0 3 C0 2.01 0 1.02 0 0 Z " fill="#DF822D" transform="translate(330,184)"/>
<path d="M0 0 C0.66 0.33 1.32 0.66 2 1 C-1.96 4.96 -5.92 8.92 -10 13 C-10.66 12.67 -11.32 12.34 -12 12 C-10.37860535 10.18415766 -8.75313264 8.3722838 -7.125 6.5625 C-6.66480469 6.04623047 -6.20460937 5.52996094 -5.73046875 4.99804688 C-2.2265625 1.11328125 -2.2265625 1.11328125 0 0 Z " fill="#1588C7" transform="translate(192,153)"/>
<path d="M0 0 C0.66 0.33 1.32 0.66 2 1 C-1.96 4.96 -5.92 8.92 -10 13 C-10.66 12.67 -11.32 12.34 -12 12 C-10.37860535 10.18415766 -8.75313264 8.3722838 -7.125 6.5625 C-6.66480469 6.04623047 -6.20460937 5.52996094 -5.73046875 4.99804688 C-2.2265625 1.11328125 -2.2265625 1.11328125 0 0 Z " fill="#1588C6" transform="translate(179,141)"/>
<path d="M0 0 C1.90318884 2.85478326 2.4619099 4.41941308 3.125 7.6875 C3.29257813 8.49574219 3.46015625 9.30398437 3.6328125 10.13671875 C3.75398437 10.75160156 3.87515625 11.36648437 4 12 C3.01 12.495 3.01 12.495 2 13 C1.34 13.99 0.68 14.98 0 16 C0 10.72 0 5.44 0 0 Z " fill="#DB8230" transform="translate(163,240)"/>
<path d="M0 0 C-0.33 1.65 -0.66 3.3 -1 5 C-4.96 5 -8.92 5 -13 5 C-10.79970166 2.79970166 -9.4218744 2.31417391 -6.5 1.375 C-5.30890625 0.98441406 -5.30890625 0.98441406 -4.09375 0.5859375 C-2 0 -2 0 0 0 Z " fill="#E2822B" transform="translate(283,299)"/>
<path d="M0 0 C0.66 0.33 1.32 0.66 2 1 C-0.97 3.97 -3.94 6.94 -7 10 C-7.66 9.67 -8.32 9.34 -9 9 C-8.06725891 7.87105124 -7.12859878 6.74699124 -6.1875 5.625 C-5.66542969 4.99851563 -5.14335937 4.37203125 -4.60546875 3.7265625 C-3 2 -3 2 0 0 Z " fill="#E3822A" transform="translate(197,160)"/>
<path d="M0 0 C1.77049689 -0.05410687 3.54146849 -0.09284119 5.3125 -0.125 C6.29863281 -0.14820313 7.28476562 -0.17140625 8.30078125 -0.1953125 C11 0 11 0 14 2 C8.51053913 3.12029814 5.16569441 2.79217969 0 1 C0 0.67 0 0.34 0 0 Z " fill="#D88231" transform="translate(269,135)"/>
<path d="M0 0 C2.24720649 4.49441297 2.7635529 7.034611 3 12 C2.01 12.99 1.02 13.98 0 15 C0 10.05 0 5.1 0 0 Z " fill="#1C8DCA" transform="translate(420,213)"/>
<path d="M0 0 C1.46179688 0.33064453 1.46179688 0.33064453 2.953125 0.66796875 C3.93796875 0.88066406 4.9228125 1.09335937 5.9375 1.3125 C6.68515625 1.49167969 7.4328125 1.67085937 8.203125 1.85546875 C8.203125 2.18546875 8.203125 2.51546875 8.203125 2.85546875 C3.253125 2.85546875 -1.696875 2.85546875 -6.796875 2.85546875 C-2.796875 -0.14453125 -2.796875 -0.14453125 0 0 Z " fill="#1793D9" transform="translate(256.796875,43.14453125)"/>
<path d="M0 0 C2.64 0 5.28 0 8 0 C8 1.32 8 2.64 8 4 C5.64828869 3.40138258 3.3140622 2.73075648 1 2 C0.67 1.34 0.34 0.68 0 0 Z " fill="#2892C9" transform="translate(250,393)"/>
<path d="M0 0 C2.0625 0.4375 2.0625 0.4375 4 1 C3.01 2.485 3.01 2.485 2 4 C2.66 4 3.32 4 4 4 C4 4.66 4 5.32 4 6 C3.01 6 2.02 6 1 6 C0.34 4.35 -0.32 2.7 -1 1 C-0.67 0.67 -0.34 0.34 0 0 Z " fill="#2488BC" transform="translate(330,342)"/>
<path d="M0 0 C0.33 0.66 0.66 1.32 1 2 C0.06553465 4.03144641 -0.93224776 6.03533587 -2 8 C-3.32 7.01 -4.64 6.02 -6 5 C-4.02 3.35 -2.04 1.7 0 0 Z " fill="#DE822C" transform="translate(135,297)"/>
<path d="M0 0 C1.32 1.32 2.64 2.64 4 4 C3.01 4.33 2.02 4.66 1 5 C1 6.65 1 8.3 1 10 C0.67 10 0.34 10 0 10 C0 6.7 0 3.4 0 0 Z " fill="#DC822E" transform="translate(250,354)"/>
<path d="M0 0 C2.64 0 5.28 0 8 0 C8.33 0.66 8.66 1.32 9 2 C2.25 3.125 2.25 3.125 0 2 C0 1.34 0 0.68 0 0 Z " fill="#C9833D" transform="translate(362,273)"/>
<path d="M0 0 C0.598125 0.20625 1.19625 0.4125 1.8125 0.625 C-3.9375 4.5 -3.9375 4.5 -6.1875 5.625 C-5.875 3.75 -5.875 3.75 -5.1875 1.625 C-2.1875 -0.375 -2.1875 -0.375 0 0 Z " fill="#E28229" transform="translate(210.1875,344.375)"/>
</svg>
